<svg id="export-svg" width="100%" xmlns="http://www.w3.org/2000/svg" class="statediagram" style="max-width: 1189.89px; background: rgb(35, 32, 48);" viewBox="0 0 1189.885498046875 268.35003662109375" role="graphics-document document" aria-roledescription="stateDiagram"><style xmlns="http://www.w3.org/1999/xhtml">p {margin: 0;}</style><style>#export-svg{font-family:arial,sans-serif;font-size:14px;fill:#ccc;}@keyframes edge-animation-frame{from{stroke-dashoffset:0;}}@keyframes dash{to{stroke-dashoffset:0;}}#export-svg .edge-animation-slow{stroke-dasharray:9,5!important;stroke-dashoffset:900;animation:dash 50s linear infinite;stroke-linecap:round;}#export-svg .edge-animation-fast{stroke-dasharray:9,5!important;stroke-dashoffset:900;animation:dash 20s linear infinite;stroke-linecap:round;}#export-svg .error-icon{fill:#a44141;}#export-svg .error-text{fill:#ddd;stroke:#ddd;}#export-svg .edge-thickness-normal{stroke-width:1px;}#export-svg .edge-thickness-thick{stroke-width:3.5px;}#export-svg .edge-pattern-solid{stroke-dasharray:0;}#export-svg .edge-thickness-invisible{stroke-width:0;fill:none;}#export-svg .edge-pattern-dashed{stroke-dasharray:3;}#export-svg .edge-pattern-dotted{stroke-dasharray:2;}#export-svg .marker{fill:lightgrey;stroke:lightgrey;}#export-svg .marker.cross{stroke:lightgrey;}#export-svg svg{font-family:arial,sans-serif;font-size:14px;}#export-svg p{margin:0;}#export-svg defs [id$="-barbEnd"]{fill:lightgrey;stroke:lightgrey;}#export-svg g.stateGroup text{fill:#ccc;stroke:none;font-size:10px;}#export-svg g.stateGroup text{fill:#ccc;stroke:none;font-size:10px;}#export-svg g.stateGroup .state-title{font-weight:bolder;fill:#e0dfdf;}#export-svg g.stateGroup rect{fill:#1f2020;stroke:#ccc;}#export-svg g.stateGroup line{stroke:lightgrey;stroke-width:1;}#export-svg .transition{stroke:lightgrey;stroke-width:1;fill:none;}#export-svg .stateGroup .composit{fill:#333;border-bottom:1px;}#export-svg .stateGroup .alt-composit{fill:#e0e0e0;border-bottom:1px;}#export-svg .state-note{stroke:hsl(180, 0%, 18.3529411765%);fill:hsl(180, 1.5873015873%, 28.3529411765%);}#export-svg .state-note text{fill:rgb(183.8476190475, 181.5523809523, 181.5523809523);stroke:none;font-size:10px;}#export-svg .stateLabel .box{stroke:none;stroke-width:0;fill:#1f2020;opacity:0.5;}#export-svg .edgeLabel .label rect{fill:#1f2020;opacity:0.5;}#export-svg .edgeLabel{background-color:hsl(0, 0%, 34.4117647059%);text-align:center;}#export-svg .edgeLabel p{background-color:hsl(0, 0%, 34.4117647059%);}#export-svg .edgeLabel rect{opacity:0.5;background-color:hsl(0, 0%, 34.4117647059%);fill:hsl(0, 0%, 34.4117647059%);}#export-svg .edgeLabel .label text{fill:#ccc;}#export-svg .label div .edgeLabel{color:#ccc;}#export-svg .stateLabel text{fill:#e0dfdf;font-size:10px;font-weight:bold;}#export-svg .node circle.state-start{fill:#f4f4f4;stroke:#f4f4f4;}#export-svg .node .fork-join{fill:#f4f4f4;stroke:#f4f4f4;}#export-svg .node circle.state-end{fill:#1f2020;stroke:#333;stroke-width:1.5;}#export-svg [data-look="neo"].node circle.state-end{filter:none;stroke:#333;fill:lightgrey;}#export-svg .end-state-inner{fill:#333;stroke:#333;stroke-width:1.5;}#export-svg .node rect{fill:#1f2020;stroke:#ccc;stroke-width:1;}#export-svg .node-rect-neo{fill:#1f2020;stroke:none;stroke-width:1px;}#export-svg .node polygon{fill:#1f2020;stroke:#ccc;stroke-width:1px;}#export-svg [id$="-barbEnd"]{fill:lightgrey;}#export-svg .statediagram-cluster rect{fill:#1f2020;stroke:#ccc;stroke-width:1px;}#export-svg .cluster-label,#export-svg .nodeLabel{color:#e0dfdf;line-height:1.0;font-weight:normal;}#export-svg .statediagram-cluster rect.outer{rx:5px;ry:5px;}#export-svg .statediagram-state .divider{stroke:#ccc;}#export-svg .statediagram-state .title-state{rx:5px;ry:5px;}#export-svg .statediagram-cluster.statediagram-cluster .inner{fill:#333;}#export-svg .statediagram-cluster.statediagram-cluster-alt .inner{fill:#555;}#export-svg .statediagram-cluster .inner{rx:0;ry:0;}#export-svg .statediagram-state rect.basic{rx:5px;ry:5px;}#export-svg .state-shadow-neo{filter:drop-shadow( 1px 2px 2px rgba(185,185,185,1));}#export-svg .statediagram-state rect.divider{stroke-dasharray:10,10;fill:#555;}#export-svg .note-edge{stroke-dasharray:5;}#export-svg .statediagram-note rect{fill:hsl(180, 1.5873015873%, 28.3529411765%);stroke:hsl(180, 0%, 18.3529411765%);stroke-width:1px;rx:0;ry:0;}#export-svg .statediagram-note rect{fill:hsl(180, 1.5873015873%, 28.3529411765%);stroke:hsl(180, 0%, 18.3529411765%);stroke-width:1px;rx:0;ry:0;}#export-svg .statediagram-note text{fill:rgb(183.8476190475, 181.5523809523, 181.5523809523);}#export-svg .statediagram-note .nodeLabel{color:rgb(183.8476190475, 181.5523809523, 181.5523809523);}#export-svg .node.statediagram-note rect{stroke:hsl(180, 0%, 18.3529411765%)!important;}#export-svg .statediagram .edgeLabel{color:red;}#export-svg [id$="-dependencyStart"],#export-svg [id$="-dependencyEnd"]{fill:lightgrey;stroke:lightgrey;stroke-width:1;}#export-svg .statediagramTitleText{text-anchor:middle;font-size:18px;fill:#ccc;}#export-svg [data-look="neo"].statediagram-cluster rect{fill:#1f2020;stroke:url(#export-svg-gradient);stroke-width:1;}#export-svg [data-look="neo"].statediagram-cluster rect.outer{rx:5px;ry:5px;filter:drop-shadow( 1px 2px 2px rgba(185,185,185,1));}#export-svg .node .neo-node{stroke:#ccc;}#export-svg [data-look="neo"].node rect,#export-svg [data-look="neo"].cluster rect,#export-svg [data-look="neo"].node polygon{stroke:url(#export-svg-gradient);filter:drop-shadow( 1px 2px 2px rgba(185,185,185,1));}#export-svg [data-look="neo"].node path{stroke:url(#export-svg-gradient);stroke-width:1px;}#export-svg [data-look="neo"].node .outer-path{filter:drop-shadow( 1px 2px 2px rgba(185,185,185,1));}#export-svg [data-look="neo"].node .neo-line path{stroke:#ccc;filter:none;}#export-svg [data-look="neo"].node circle{stroke:url(#export-svg-gradient);filter:drop-shadow( 1px 2px 2px rgba(185,185,185,1));}#export-svg [data-look="neo"].node circle .state-start{fill:#000000;}#export-svg [data-look="neo"].icon-shape .icon{fill:url(#export-svg-gradient);filter:drop-shadow( 1px 2px 2px rgba(185,185,185,1));}#export-svg [data-look="neo"].icon-shape .icon-neo path{stroke:url(#export-svg-gradient);filter:drop-shadow( 1px 2px 2px rgba(185,185,185,1));}#export-svg :root{--mermaid-font-family:"trebuchet ms",verdana,arial,sans-serif;}</style><g><defs><marker id="export-svg_stateDiagram-barbEnd" refX="19" refY="7" markerWidth="20" markerHeight="14" markerUnits="strokeWidth" orient="auto"><path d="M 19,7 L11,14 L13,7 L11,0 Z"/></marker></defs><defs><marker id="export-svg_stateDiagram-barbEnd-margin" refX="17" refY="7" markerWidth="20" markerHeight="14" markerUnits="userSpaceOnUse" orient="auto"><path d="M 19,7 L11,14 L13,7 L11,0 Z" fill="lightgrey"/></marker></defs><g class="root"><g class="clusters"/><g class="edgePaths"><path d="M22,53.75L47,53.75L66.5,53.75" id="export-svg-edge0" class="edge-thickness-normal edge-pattern-solid transition" style="stroke-dasharray: 0 0 44.5 0; stroke-dashoffset: 0;fill:none;;;fill:none" data-edge="true" data-et="edge" data-id="edge0" data-points="W3sieCI6MjIsInkiOjUzLjc1fSx7IngiOjQ3LCJ5Ijo1My43NX0seyJ4Ijo3MiwieSI6NTMuNzV9XQ==" data-look="neo" marker-end="url(#export-svg_stateDiagram-barbEnd-margin)"/><path d="M131.45431557298298,72.75L194.46045682164598,121.05503598703896Q206.8125,130.52500000037253 222.37698486438774,130.52500000037253L266.78125,130.52500000037253" id="export-svg-edge1" class="edge-thickness-normal edge-pattern-solid transition" style="stroke-dasharray: 0 0 153.83169555664062 0; stroke-dashoffset: 0;fill:none;;;fill:none" data-edge="true" data-et="edge" data-id="edge1" data-points="W3sieCI6MTMxLjQ1NDMxNTU3Mjk4Mjk4LCJ5Ijo3Mi43NX0seyJ4IjoyMDYuODEyNSwieSI6MTMwLjUyNTAwMDAwMDM3MjUzfSx7IngiOjI3Mi4yODEyNSwieSI6MTMwLjUyNTAwMDAwMDM3MjUzfV0=" data-look="neo" marker-end="url(#export-svg_stateDiagram-barbEnd-margin)"/><path d="M378.1875,130.52500000037253L463.8854179382324,130.52500000037253L544.0833358764648,130.52500000037253" id="export-svg-edge2" class="edge-thickness-normal edge-pattern-solid transition" style="stroke-dasharray: 0 0 165.89581298828125 0; stroke-dashoffset: 0;fill:none;;;fill:none" data-edge="true" data-et="edge" data-id="edge2" data-points="W3sieCI6Mzc4LjE4NzUsInkiOjEzMC41MjUwMDAwMDAzNzI1M30seyJ4Ijo0NjMuODg1NDE3OTM4MjMyNCwieSI6MTMwLjUyNTAwMDAwMDM3MjUzfSx7IngiOjU0OS41ODMzMzU4NzY0NjQ4LCJ5IjoxMzAuNTI1MDAwMDAwMzcyNTN9XQ==" data-look="neo" marker-end="url(#export-svg_stateDiagram-barbEnd-margin)"/><path d="M632.15625,130.81015711527053L667.6171875,131.05507855800778Q703.078125,131.30000000074506 738.5399083010695,131.30000000074506L827.2989570610225,131.30000000074506" id="export-svg-ACTIVE-cyclic-special-1" class="edge-thickness-normal edge-pattern-solid transition" style="stroke-dasharray: 0 0 195.1441192626953 0; stroke-dashoffset: 0;fill:none;;;fill:none" data-edge="true" data-et="edge" data-id="ACTIVE-cyclic-special-1" data-points="W3sieCI6NjMyLjE1NjI1LCJ5IjoxMzAuODEwMTU3MTE1MjcwNTN9LHsieCI6NzAzLjA3ODEyNSwieSI6MTMxLjMwMDAwMDAwMDc0NTA2fSx7IngiOjgyNy4yOTg5NTcwNjEwMjI1LCJ5IjoxMzEuMzAwMDAwMDAwNzQ1MDZ9XQ==" data-look="neo"/><path d="M827.3989570625126,131.30000000074506L970.9479141235352,131.30000000074506L1121.49166412279,131.30000000074506" id="export-svg-ACTIVE-cyclic-special-mid" class="edge-thickness-normal edge-pattern-solid transition" style="stroke-dasharray: 0 0 294.09271240234375 0; stroke-dashoffset: 0;fill:none;;;fill:none" data-edge="true" data-et="edge" data-id="ACTIVE-cyclic-special-mid" data-points="W3sieCI6ODI3LjM5ODk1NzA2MjUxMjYsInkiOjEzMS4zMDAwMDAwMDA3NDUwNn0seyJ4Ijo5NzAuOTQ3OTE0MTIzNTM1MiwieSI6MTMxLjMwMDAwMDAwMDc0NTA2fSx7IngiOjExMjEuNDkxNjY0MTIyNzksInkiOjEzMS4zMDAwMDAwMDA3NDUwNn1d" data-look="neo"/><path d="M1121.49166412279,131.28836273142844L1013.6327835507169,106.18470627734898Q970.9479141235352,96.25 927.1221629396393,96.25L827.3489570617676,96.25L736.933656134041,96.25Q703.078125,96.25 670.6994574189789,106.14034246352273L637.4163261450337,116.30696114027931" id="export-svg-ACTIVE-cyclic-special-2" class="edge-thickness-normal edge-pattern-solid transition" style="stroke-dasharray: 0 0 490.21844482421875 0; stroke-dashoffset: 0;fill:none;;;fill:none" data-edge="true" data-et="edge" data-id="ACTIVE-cyclic-special-2" data-points="W3sieCI6MTEyMS40OTE2NjQxMjI3OSwieSI6MTMxLjI4ODM2MjczMTQyODQ0fSx7IngiOjk3MC45NDc5MTQxMjM1MzUyLCJ5Ijo5Ni4yNX0seyJ4Ijo4MjcuMzQ4OTU3MDYxNzY3NiwieSI6OTYuMjV9LHsieCI6NzAzLjA3ODEyNSwieSI6OTYuMjV9LHsieCI6NjMyLjE1NjI1LCJ5IjoxMTcuOTEzNjk2NjM0NTE4MjV9XQ==" data-look="neo" marker-end="url(#export-svg_stateDiagram-barbEnd-margin)"/><path d="M618.4501074162795,111.52500000037253L682.1071710685425,67.6718303653524Q703.078125,53.22499999962747 727.9948489528392,47.96679841834941L768.6185243403763,39.39394291116568" id="export-svg-edge4" class="edge-thickness-normal edge-pattern-solid transition" style="stroke-dasharray: 0 0 169.09005737304688 0; stroke-dashoffset: 0;fill:none;;;fill:none" data-edge="true" data-et="edge" data-id="edge4" data-points="W3sieCI6NjE4LjQ1MDEwNzQxNjI3OTUsInkiOjExMS41MjUwMDAwMDAzNzI1M30seyJ4Ijo3MDMuMDc4MTI1LCJ5Ijo1My4yMjQ5OTk5OTk2Mjc0N30seyJ4Ijo3NzQsInkiOjM4LjI1ODI4NDYzMjk1MDU4NH1d" data-look="neo" marker-end="url(#export-svg_stateDiagram-barbEnd-margin)"/><path d="M610.106953408813,149.52500000037253L693.7120391551871,232.09938157869357Q703.078125,241.35000000149012 716.2423760328765,241.35000000149012L775.1145820617676,241.35000000149012" id="export-svg-edge5" class="edge-thickness-normal edge-pattern-solid transition" style="stroke-dasharray: 0 0 201.4045867919922 0; stroke-dashoffset: 0;fill:none;;;fill:none" data-edge="true" data-et="edge" data-id="edge5" data-points="W3sieCI6NjEwLjEwNjk1MzQwODgxMywieSI6MTQ5LjUyNTAwMDAwMDM3MjUzfSx7IngiOjcwMy4wNzgxMjUsInkiOjI0MS4zNTAwMDAwMDE0OTAxMn0seyJ4Ijo3ODAuNjE0NTgyMDYxNzY3NiwieSI6MjQxLjM1MDAwMDAwMTQ5MDEyfV0=" data-look="neo" marker-end="url(#export-svg_stateDiagram-barbEnd-margin)"/><path d="M874.0833320617676,241.35000000149012L928.5728519432024,241.35000000149012Q970.9479141235352,241.35000000149012 1013.3229179129131,241.27965345027303L1055.697921702291,241.20930689905597" id="export-svg-edge6" class="edge-thickness-normal edge-pattern-solid transition" style="stroke-dasharray: 0 0 181.61465454101562 0; stroke-dashoffset: 0;fill:none;;;fill:none" data-edge="true" data-et="edge" data-id="edge6" data-points="W3sieCI6ODc0LjA4MzMzMjA2MTc2NzYsInkiOjI0MS4zNTAwMDAwMDE0OTAxMn0seyJ4Ijo5NzAuOTQ3OTE0MTIzNTM1MiwieSI6MjQxLjM1MDAwMDAwMTQ5MDEyfSx7IngiOjEwNjEuMTk3OTE0MTIzNTM1MiwieSI6MjQxLjIwMDE3NjM4NjYzMjI1fV0=" data-look="neo" marker-end="url(#export-svg_stateDiagram-barbEnd-margin)"/><path d="M1077.0081038122512,222.10000000149012L993.9117890926784,186.6474116919982Q970.9479141235352,176.85000000149012 945.9813599073093,176.85000000149012L827.3489570617676,176.85000000149012L728.7826242443638,176.85000000149012Q703.078125,176.85000000149012 679.3188105081057,167.0410114563464L637.2400381906637,149.6688690152709" id="export-svg-edge7" class="edge-thickness-normal edge-pattern-solid transition" style="stroke-dasharray: 0 0 453.0815124511719 0; stroke-dashoffset: 0;fill:none;;;fill:none" data-edge="true" data-et="edge" data-id="edge7" data-points="W3sieCI6MTA3Ny4wMDgxMDM4MTIyNTEyLCJ5IjoyMjIuMTAwMDAwMDAxNDkwMTJ9LHsieCI6OTcwLjk0NzkxNDEyMzUzNTIsInkiOjE3Ni44NTAwMDAwMDE0OTAxMn0seyJ4Ijo4MjcuMzQ4OTU3MDYxNzY3NiwieSI6MTc2Ljg1MDAwMDAwMTQ5MDEyfSx7IngiOjcwMy4wNzgxMjUsInkiOjE3Ni44NTAwMDAwMDE0OTAxMn0seyJ4Ijo2MzIuMTU2MjUsInkiOjE0Ny41NzAwMzY1NzAyMDMxNH1d" data-look="neo" marker-end="url(#export-svg_stateDiagram-barbEnd-margin)"/><path d="M774,20.45323772526462L738.5390625,16.10161886263231Q703.078125,11.75 667.3511789353764,11.75L590.8697929382324,11.75L463.8854179382324,11.75L325.234375,11.75L232.15962506348706,11.75Q206.8125,11.75 183.4379852374747,21.553510014303022L146.41571894605937,37.081026286939064" id="export-svg-edge8" class="edge-thickness-normal edge-pattern-solid transition" style="stroke-dasharray: 0 0 632.4618530273438 0; stroke-dashoffset: 0;fill:none;;;fill:none" data-edge="true" data-et="edge" data-id="edge8" data-points="W3sieCI6Nzc0LCJ5IjoyMC40NTMyMzc3MjUyNjQ2Mn0seyJ4Ijo3MDMuMDc4MTI1LCJ5IjoxMS43NX0seyJ4Ijo1OTAuODY5NzkyOTM4MjMyNCwieSI6MTEuNzV9LHsieCI6NDYzLjg4NTQxNzkzODIzMjQsInkiOjExLjc1fSx7IngiOjMyNS4yMzQzNzUsInkiOjExLjc1fSx7IngiOjIwNi44MTI1LCJ5IjoxMS43NX0seyJ4IjoxNDEuMzQzNzUsInkiOjM5LjIwODI2MTgxOTMxNjU5fV0=" data-look="neo" marker-end="url(#export-svg_stateDiagram-barbEnd-margin)"/><path d="M141.34375,53.75L206.8125,53.75L312.7277283668518,53.75" id="export-svg-edge9" class="edge-thickness-normal edge-pattern-solid transition" style="stroke-dasharray: 0 0 171.38397216796875 0; stroke-dashoffset: 0;fill:none;;;fill:none" data-edge="true" data-et="edge" data-id="edge9" data-points="W3sieCI6MTQxLjM0Mzc1LCJ5Ijo1My43NX0seyJ4IjoyMDYuODEyNSwieSI6NTMuNzV9LHsieCI6MzE4LjIyNzcyODM2Njg1MTgsInkiOjUzLjc1fV0=" data-look="neo" marker-end="url(#export-svg_stateDiagram-barbEnd-margin)"/></g><g class="edgeLabels"><g class="edgeLabel"><g class="label" data-id="edge0" transform="translate(0, 0)"><foreignObject width="0" height="0"><div xmlns="http://www.w3.org/1999/xhtml" class="labelBkg" style="display: table-cell; white-space: normal; overflow-wrap: break-word; line-height: 1.5; max-width: 200px; text-align: center;"><span class="edgeLabel"></span></div></foreignObject></g></g><g class="edgeLabel" transform="translate(206.8125, 130.52500000037253)"><g class="label" data-id="edge1" transform="translate(-40.46875, -10.5)"><foreignObject width="80.9375" height="21"><div xmlns="http://www.w3.org/1999/xhtml" class="labelBkg" style="display: table-cell; white-space: normal; overflow-wrap: break-word; line-height: 1.5; max-width: 200px; text-align: center;"><span class="edgeLabel"><p>Acquire Lock</p></span></div></foreignObject></g></g><g class="edgeLabel" transform="translate(463.8854179382324, 130.52500000037253)"><g class="label" data-id="edge2" transform="translate(-60.69791793823242, -10.5)"><foreignObject width="121.39583587646484" height="21"><div xmlns="http://www.w3.org/1999/xhtml" class="labelBkg" style="display: table-cell; white-space: normal; overflow-wrap: break-word; line-height: 1.5; max-width: 200px; text-align: center;"><span class="edgeLabel"><p>Ownership Granted</p></span></div></foreignObject></g></g><g class="edgeLabel"><g class="label" data-id="ACTIVE-cyclic-special-1" transform="translate(0, 0)"><foreignObject width="0" height="0"><div xmlns="http://www.w3.org/1999/xhtml" class="labelBkg" style="display: table-cell; white-space: normal; overflow-wrap: break-word; line-height: 1.5; max-width: 200px; text-align: center;"><span class="edgeLabel"></span></div></foreignObject></g></g><g class="edgeLabel" transform="translate(970.9479141235352, 131.30000000074506)"><g class="label" data-id="ACTIVE-cyclic-special-mid" transform="translate(-40.07291793823242, -10.5)"><foreignObject width="80.14583587646484" height="21"><div xmlns="http://www.w3.org/1999/xhtml" class="labelBkg" style="display: table-cell; white-space: normal; overflow-wrap: break-word; line-height: 1.5; max-width: 200px; text-align: center;"><span class="edgeLabel"><p>renew_lock()</p></span></div></foreignObject></g></g><g class="edgeLabel"><g class="label" data-id="ACTIVE-cyclic-special-2" transform="translate(0, 0)"><foreignObject width="0" height="0"><div xmlns="http://www.w3.org/1999/xhtml" class="labelBkg" style="display: table-cell; white-space: normal; overflow-wrap: break-word; line-height: 1.5; max-width: 200px; text-align: center;"><span class="edgeLabel"></span></div></foreignObject></g></g><g class="edgeLabel" transform="translate(703.078125, 53.22499999962747)"><g class="label" data-id="edge4" transform="translate(-43.96354293823242, -10.5)"><foreignObject width="87.92708587646484" height="21"><div xmlns="http://www.w3.org/1999/xhtml" class="labelBkg" style="display: table-cell; white-space: normal; overflow-wrap: break-word; line-height: 1.5; max-width: 200px; text-align: center;"><span class="edgeLabel"><p>release_lock()</p></span></div></foreignObject></g></g><g class="edgeLabel" transform="translate(703.078125, 241.35000000149012)"><g class="label" data-id="edge5" transform="translate(-45.921875, -10.5)"><foreignObject width="91.84375" height="21"><div xmlns="http://www.w3.org/1999/xhtml" class="labelBkg" style="display: table-cell; white-space: normal; overflow-wrap: break-word; line-height: 1.5; max-width: 200px; text-align: center;"><span class="edgeLabel"><p>Lease Timeout</p></span></div></foreignObject></g></g><g class="edgeLabel" transform="translate(970.9479141235352, 241.35000000149012)"><g class="label" data-id="edge6" transform="translate(-65.25, -10.5)"><foreignObject width="130.5" height="21"><div xmlns="http://www.w3.org/1999/xhtml" class="labelBkg" style="display: table-cell; white-space: normal; overflow-wrap: break-word; line-height: 1.5; max-width: 200px; text-align: center;"><span class="edgeLabel"><p>Conditional Takeover</p></span></div></foreignObject></g></g><g class="edgeLabel" transform="translate(827.3489570617676, 176.85000000149012)"><g class="label" data-id="edge7" transform="translate(-36.567710876464844, -10.5)"><foreignObject width="73.13542175292969" height="21"><div xmlns="http://www.w3.org/1999/xhtml" class="labelBkg" style="display: table-cell; white-space: normal; overflow-wrap: break-word; line-height: 1.5; max-width: 200px; text-align: center;"><span class="edgeLabel"><p>New Owner</p></span></div></foreignObject></g></g><g class="edgeLabel"><g class="label" data-id="edge8" transform="translate(0, 0)"><foreignObject width="0" height="0"><div xmlns="http://www.w3.org/1999/xhtml" class="labelBkg" style="display: table-cell; white-space: normal; overflow-wrap: break-word; line-height: 1.5; max-width: 200px; text-align: center;"><span class="edgeLabel"></span></div></foreignObject></g></g><g class="edgeLabel"><g class="label" data-id="edge9" transform="translate(0, 0)"><foreignObject width="0" height="0"><div xmlns="http://www.w3.org/1999/xhtml" class="labelBkg" style="display: table-cell; white-space: normal; overflow-wrap: break-word; line-height: 1.5; max-width: 200px; text-align: center;"><span class="edgeLabel"></span></div></foreignObject></g></g></g><g class="nodes"><g class="node default" id="export-svg-state-root_start-0" data-look="neo" data-id="root_start" data-node="true" data-et="node" transform="translate(15, 53.75)"><circle class="state-start" r="7" width="14" height="14"/></g><g class="node  statediagram-state" id="export-svg-state-FREE-9" data-look="neo" data-id="FREE" data-node="true" data-et="node" transform="translate(106.671875, 53.75)"><rect class="basic label-container" style="" rx="5" data-id="FREE" ry="5" x="-34.671875" y="-19" width="69.34375" height="38" stroke="url(#gradient)"/><g class="label" style="" transform="translate(-18.671875, -7)"><rect/><foreignObject width="37.34375" height="14"><div xmlns="http://www.w3.org/1999/xhtml" style="display: table-cell; white-space: normal; overflow-wrap: break-word; line-height: 1.5; max-width: 200px; text-align: center;"><span class="nodeLabel markdown-node-label"><p>FREE</p></span></div></foreignObject></g></g><g class="node  statediagram-state" id="export-svg-state-ACQUIRED-2" data-look="neo" data-id="ACQUIRED" data-node="true" data-et="node" transform="translate(325.234375, 130.52500000037253)"><rect class="basic label-container" style="" rx="5" data-id="ACQUIRED" ry="5" x="-52.953125" y="-19" width="105.90625" height="38" stroke="url(#gradient)"/><g class="label" style="" transform="translate(-36.953125, -7)"><rect/><foreignObject width="73.90625" height="14"><div xmlns="http://www.w3.org/1999/xhtml" style="display: table-cell; white-space: normal; overflow-wrap: break-word; line-height: 1.5; max-width: 200px; text-align: center;"><span class="nodeLabel markdown-node-label"><p>ACQUIRED</p></span></div></foreignObject></g></g><g class="node  statediagram-state" id="export-svg-state-ACTIVE-7" data-look="neo" data-id="ACTIVE" data-node="true" data-et="node" transform="translate(590.8697929382324, 130.52500000037253)"><rect class="basic label-container" style="" rx="5" data-id="ACTIVE" ry="5" x="-41.28645896911621" y="-19" width="82.57291793823242" height="38" stroke="url(#gradient)"/><g class="label" style="" transform="translate(-25.28645896911621, -7)"><rect/><foreignObject width="50.57291793823242" height="14"><div xmlns="http://www.w3.org/1999/xhtml" style="display: table-cell; white-space: normal; overflow-wrap: break-word; line-height: 1.5; max-width: 200px; text-align: center;"><span class="nodeLabel markdown-node-label"><p>ACTIVE</p></span></div></foreignObject></g></g><g class="node  statediagram-state" id="export-svg-state-RELEASED-8" data-look="neo" data-id="RELEASED" data-node="true" data-et="node" transform="translate(827.3489570617676, 27)"><rect class="basic label-container" style="" rx="5" data-id="RELEASED" ry="5" x="-53.348960876464844" y="-19" width="106.69792175292969" height="38" stroke="url(#gradient)"/><g class="label" style="" transform="translate(-37.348960876464844, -7)"><rect/><foreignObject width="74.69792175292969" height="14"><div xmlns="http://www.w3.org/1999/xhtml" style="display: table-cell; white-space: normal; overflow-wrap: break-word; line-height: 1.5; max-width: 200px; text-align: center;"><span class="nodeLabel markdown-node-label"><p>RELEASED</p></span></div></foreignObject></g></g><g class="node  statediagram-state" id="export-svg-state-EXPIRED-6" data-look="neo" data-id="EXPIRED" data-node="true" data-et="node" transform="translate(827.3489570617676, 241.35000000149012)"><rect class="basic label-container" style="" rx="5" data-id="EXPIRED" ry="5" x="-46.734375" y="-19" width="93.46875" height="38" stroke="url(#gradient)"/><g class="label" style="" transform="translate(-30.734375, -7)"><rect/><foreignObject width="61.46875" height="14"><div xmlns="http://www.w3.org/1999/xhtml" style="display: table-cell; white-space: normal; overflow-wrap: break-word; line-height: 1.5; max-width: 200px; text-align: center;"><span class="nodeLabel markdown-node-label"><p>EXPIRED</p></span></div></foreignObject></g></g><g class="node  statediagram-state" id="export-svg-state-RECOVERED-7" data-look="neo" data-id="RECOVERED" data-node="true" data-et="node" transform="translate(1121.5416641235352, 241.10000000149012)"><rect class="basic label-container" style="" rx="5" data-id="RECOVERED" ry="5" x="-60.34375" y="-19" width="120.6875" height="38" stroke="url(#gradient)"/><g class="label" style="" transform="translate(-44.34375, -7)"><rect/><foreignObject width="88.6875" height="14"><div xmlns="http://www.w3.org/1999/xhtml" style="display: table-cell; white-space: normal; overflow-wrap: break-word; line-height: 1.5; max-width: 200px; text-align: center;"><span class="nodeLabel markdown-node-label"><p>RECOVERED</p></span></div></foreignObject></g></g><g class="node default" id="export-svg-state-root_end-9" data-look="neo" data-id="root_end" data-node="true" data-et="node" transform="translate(325.234375, 53.75)"><g class="outer-path"><path d="M7 0 C7 0.40517908122283747, 6.964012880168563 0.816513743121899, 6.893654271085456 1.2155372436685123 C6.823295662002349 1.6145607442151257, 6.716427752933756 2.013397210557766, 6.5778483455013586 2.394141003279681 C6.439268938068961 2.7748847960015954, 6.26476736710249 3.149104622578984, 6.062177826491071 3.4999999999999996 C5.859588285879653 3.8508953774210153, 5.622755194947063 4.189128084166967, 5.362311101832846 4.499513267805774 C5.10186700871863 4.809898451444582, 4.809898451444583 5.10186700871863, 4.499513267805775 5.362311101832846 C4.189128084166968 5.622755194947063, 3.8508953774210166 5.859588285879652, 3.500000000000001 6.06217782649107 C3.149104622578985 6.264767367102489, 2.7748847960015963 6.439268938068961, 2.3941410032796817 6.5778483455013586 C2.013397210557767 6.716427752933756, 1.6145607442151264 6.823295662002349, 1.2155372436685128 6.893654271085456 C0.8165137431218992 6.964012880168563, 0.4051790812228379 7, 4.286263797015736e-16 7 C-0.405179081222837 7, -0.8165137431218985 6.964012880168563, -1.2155372436685121 6.893654271085456 C-1.6145607442151257 6.823295662002349, -2.0133972105577667 6.716427752933756, -2.394141003279681 6.5778483455013586 C-2.774884796001595 6.439268938068961, -3.149104622578983 6.26476736710249, -3.4999999999999982 6.062177826491071 C-3.8508953774210135 5.859588285879653, -4.189128084166966 5.6227551949470636, -4.499513267805773 5.362311101832848 C-4.809898451444581 5.101867008718632, -5.101867008718628 4.809898451444586, -5.3623111018328435 4.499513267805779 C-5.622755194947059 4.189128084166971, -5.859588285879649 3.8508953774210206, -6.062177826491068 3.5000000000000053 C-6.264767367102486 3.14910462257899, -6.439268938068958 2.774884796001602, -6.577848345501356 2.394141003279688 C-6.716427752933754 2.0133972105577738, -6.823295662002347 1.614560744215134, -6.893654271085454 1.215537243668521 C-6.9640128801685615 0.816513743121908, -6.999999999999999 0.4051790812228472, -7 1.0183126166254463e-14 C-7.000000000000001 -0.40517908122282686, -6.964012880168565 -0.8165137431218878, -6.893654271085459 -1.215537243668501 C-6.823295662002352 -1.6145607442151142, -6.716427752933759 -2.0133972105577542, -6.577848345501363 -2.394141003279669 C-6.439268938068967 -2.7748847960015834, -6.264767367102496 -3.149104622578972, -6.062177826491078 -3.4999999999999876 C-5.859588285879661 -3.8508953774210033, -5.6227551949470715 -4.1891280841669545, -5.362311101832856 -4.499513267805763 C-5.10186700871864 -4.809898451444571, -4.809898451444594 -5.10186700871862, -4.499513267805787 -5.362311101832836 C-4.189128084166979 -5.622755194947053, -3.850895377421028 -5.859588285879643, -3.5000000000000133 -6.062177826491062 C-3.1491046225789985 -6.264767367102482, -2.774884796001611 -6.439268938068954, -2.3941410032796973 -6.577848345501353 C-2.0133972105577835 -6.716427752933752, -1.6145607442151435 -6.823295662002345, -1.2155372436685306 -6.893654271085453 C-0.8165137431219176 -6.9640128801685615, -0.40517908122285695 -6.999999999999999, -1.9937625952807352e-14 -7 C0.4051790812228171 -7.000000000000001, 0.8165137431218781 -6.964012880168565, 1.2155372436684913 -6.89365427108546 C1.6145607442151044 -6.823295662002354, 2.013397210557745 -6.716427752933763, 2.3941410032796595 -6.5778483455013665 C2.774884796001574 -6.43926893806897, 3.149104622578963 -6.2647673671025, 3.499999999999979 -6.062177826491083 C3.8508953774209953 -5.859588285879665, 4.189128084166947 -5.622755194947077, 4.499513267805756 -5.362311101832862 C4.809898451444564 -5.1018670087186475, 5.101867008718613 -4.809898451444602, 5.362311101832829 -4.499513267805796 C5.622755194947046 -4.189128084166989, 5.859588285879637 -3.8508953774210393, 6.062177826491056 -3.500000000000025 C6.2647673671024755 -3.1491046225790105, 6.439268938068949 -2.774884796001623, 6.577848345501348 -2.3941410032797092 C6.716427752933747 -2.0133972105577955, 6.823295662002342 -1.6145607442151562, 6.893654271085451 -1.2155372436685434 C6.96401288016856 -0.8165137431219307, 6.982275711847575 -0.2025895406114567, 7 -3.2800750208310675e-14 C7.017724288152425 0.2025895406113911, 7.017724288152424 -0.2025895406114242, 7 0" stroke="none" stroke-width="0" fill="#1f2020" style=""/><path d="M7 0 C7 0.40517908122283747, 6.964012880168563 0.816513743121899, 6.893654271085456 1.2155372436685123 C6.823295662002349 1.6145607442151257, 6.716427752933756 2.013397210557766, 6.5778483455013586 2.394141003279681 C6.439268938068961 2.7748847960015954, 6.26476736710249 3.149104622578984, 6.062177826491071 3.4999999999999996 C5.859588285879653 3.8508953774210153, 5.622755194947063 4.189128084166967, 5.362311101832846 4.499513267805774 C5.10186700871863 4.809898451444582, 4.809898451444583 5.10186700871863, 4.499513267805775 5.362311101832846 C4.189128084166968 5.622755194947063, 3.8508953774210166 5.859588285879652, 3.500000000000001 6.06217782649107 C3.149104622578985 6.264767367102489, 2.7748847960015963 6.439268938068961, 2.3941410032796817 6.5778483455013586 C2.013397210557767 6.716427752933756, 1.6145607442151264 6.823295662002349, 1.2155372436685128 6.893654271085456 C0.8165137431218992 6.964012880168563, 0.4051790812228379 7, 4.286263797015736e-16 7 C-0.405179081222837 7, -0.8165137431218985 6.964012880168563, -1.2155372436685121 6.893654271085456 C-1.6145607442151257 6.823295662002349, -2.0133972105577667 6.716427752933756, -2.394141003279681 6.5778483455013586 C-2.774884796001595 6.439268938068961, -3.149104622578983 6.26476736710249, -3.4999999999999982 6.062177826491071 C-3.8508953774210135 5.859588285879653, -4.189128084166966 5.6227551949470636, -4.499513267805773 5.362311101832848 C-4.809898451444581 5.101867008718632, -5.101867008718628 4.809898451444586, -5.3623111018328435 4.499513267805779 C-5.622755194947059 4.189128084166971, -5.859588285879649 3.8508953774210206, -6.062177826491068 3.5000000000000053 C-6.264767367102486 3.14910462257899, -6.439268938068958 2.774884796001602, -6.577848345501356 2.394141003279688 C-6.716427752933754 2.0133972105577738, -6.823295662002347 1.614560744215134, -6.893654271085454 1.215537243668521 C-6.9640128801685615 0.816513743121908, -6.999999999999999 0.4051790812228472, -7 1.0183126166254463e-14 C-7.000000000000001 -0.40517908122282686, -6.964012880168565 -0.8165137431218878, -6.893654271085459 -1.215537243668501 C-6.823295662002352 -1.6145607442151142, -6.716427752933759 -2.0133972105577542, -6.577848345501363 -2.394141003279669 C-6.439268938068967 -2.7748847960015834, -6.264767367102496 -3.149104622578972, -6.062177826491078 -3.4999999999999876 C-5.859588285879661 -3.8508953774210033, -5.6227551949470715 -4.1891280841669545, -5.362311101832856 -4.499513267805763 C-5.10186700871864 -4.809898451444571, -4.809898451444594 -5.10186700871862, -4.499513267805787 -5.362311101832836 C-4.189128084166979 -5.622755194947053, -3.850895377421028 -5.859588285879643, -3.5000000000000133 -6.062177826491062 C-3.1491046225789985 -6.264767367102482, -2.774884796001611 -6.439268938068954, -2.3941410032796973 -6.577848345501353 C-2.0133972105577835 -6.716427752933752, -1.6145607442151435 -6.823295662002345, -1.2155372436685306 -6.893654271085453 C-0.8165137431219176 -6.9640128801685615, -0.40517908122285695 -6.999999999999999, -1.9937625952807352e-14 -7 C0.4051790812228171 -7.000000000000001, 0.8165137431218781 -6.964012880168565, 1.2155372436684913 -6.89365427108546 C1.6145607442151044 -6.823295662002354, 2.013397210557745 -6.716427752933763, 2.3941410032796595 -6.5778483455013665 C2.774884796001574 -6.43926893806897, 3.149104622578963 -6.2647673671025, 3.499999999999979 -6.062177826491083 C3.8508953774209953 -5.859588285879665, 4.189128084166947 -5.622755194947077, 4.499513267805756 -5.362311101832862 C4.809898451444564 -5.1018670087186475, 5.101867008718613 -4.809898451444602, 5.362311101832829 -4.499513267805796 C5.622755194947046 -4.189128084166989, 5.859588285879637 -3.8508953774210393, 6.062177826491056 -3.500000000000025 C6.2647673671024755 -3.1491046225790105, 6.439268938068949 -2.774884796001623, 6.577848345501348 -2.3941410032797092 C6.716427752933747 -2.0133972105577955, 6.823295662002342 -1.6145607442151562, 6.893654271085451 -1.2155372436685434 C6.96401288016856 -0.8165137431219307, 6.982275711847575 -0.2025895406114567, 7 -3.2800750208310675e-14 C7.017724288152425 0.2025895406113911, 7.017724288152424 -0.2025895406114242, 7 0" stroke="lightgrey" stroke-width="2" fill="none" stroke-dasharray="0 0" style=""/><g><path d="M2.5 0 C2.5 0.14470681472244193, 2.487147457203058 0.29161205111496386, 2.46201938253052 0.4341204441673258 C2.436891307857982 0.5766288372196877, 2.3987241974763416 0.7190704323420595, 2.3492315519647713 0.8550503583141718 C2.299738906453201 0.991030284286284, 2.2374169168223177 1.124680222349637, 2.165063509461097 1.2499999999999998 C2.092710102099876 1.3753197776503625, 2.0081268553382365 1.496117172916774, 1.915111107797445 1.6069690242163481 C1.8220953602566536 1.7178208755159223, 1.7178208755159226 1.8220953602566536, 1.6069690242163484 1.915111107797445 C1.4961171729167742 2.0081268553382365, 1.375319777650363 2.0927101020998755, 1.2500000000000002 2.1650635094610964 C1.1246802223496375 2.2374169168223172, 0.9910302842862845 2.2997389064532, 0.8550503583141721 2.349231551964771 C0.7190704323420597 2.3987241974763416, 0.576628837219688 2.436891307857982, 0.43412044416732604 2.46201938253052 C0.291612051114964 2.487147457203058, 0.14470681472244212 2.5, 1.5308084989341916e-16 2.5 C-0.1447068147224418 2.5, -0.2916120511149638 2.487147457203058, -0.43412044416732576 2.46201938253052 C-0.5766288372196877 2.436891307857982, -0.7190704323420595 2.3987241974763416, -0.8550503583141718 2.3492315519647713 C-0.991030284286284 2.299738906453201, -1.124680222349637 2.2374169168223177, -1.2499999999999996 2.165063509461097 C-1.375319777650362 2.092710102099876, -1.4961171729167733 2.008126855338237, -1.6069690242163475 1.9151111077974459 C-1.7178208755159217 1.8220953602566548, -1.822095360256653 1.7178208755159234, -1.9151111077974443 1.6069690242163495 C-2.0081268553382357 1.4961171729167755, -2.0927101020998746 1.3753197776503645, -2.1650635094610955 1.250000000000002 C-2.2374169168223164 1.1246802223496395, -2.2997389064531992 0.9910302842862865, -2.34923155196477 0.8550503583141743 C-2.3987241974763407 0.7190704323420621, -2.436891307857981 0.5766288372196907, -2.4620193825305194 0.434120444167329 C-2.487147457203058 0.29161205111496724, -2.5 0.14470681472244545, -2.5 3.636830773662308e-15 C-2.5 -0.14470681472243818, -2.4871474572030587 -0.2916120511149599, -2.4620193825305208 -0.4341204441673218 C-2.436891307857983 -0.5766288372196837, -2.398724197476343 -0.7190704323420553, -2.3492315519647726 -0.8550503583141675 C-2.2997389064532023 -0.9910302842862798, -2.23741691682232 -1.1246802223496328, -2.165063509461099 -1.2499999999999956 C-2.092710102099878 -1.3753197776503583, -2.00812685533824 -1.4961171729167695, -1.9151111077974488 -1.606969024216344 C-1.8220953602566576 -1.7178208755159183, -1.7178208755159263 -1.82209536025665, -1.6069690242163523 -1.9151111077974416 C-1.4961171729167784 -2.0081268553382334, -1.3753197776503672 -2.0927101020998724, -1.2500000000000047 -2.1650635094610937 C-1.1246802223496422 -2.237416916822315, -0.9910302842862897 -2.299738906453198, -0.8550503583141776 -2.3492315519647686 C-0.7190704323420656 -2.3987241974763394, -0.5766288372196942 -2.4368913078579806, -0.43412044416733236 -2.462019382530519 C-0.29161205111497057 -2.4871474572030574, -0.1447068147224489 -2.4999999999999996, -7.120580697431198e-15 -2.5 C0.14470681472243463 -2.5000000000000004, 0.29161205111495647 -2.487147457203059, 0.4341204441673183 -2.4620193825305217 C0.5766288372196802 -2.436891307857984, 0.7190704323420518 -2.3987241974763442, 0.8550503583141642 -2.349231551964774 C0.9910302842862766 -2.2997389064532037, 1.1246802223496295 -2.2374169168223212, 1.2499999999999925 -2.165063509461101 C1.3753197776503554 -2.0927101020998804, 1.4961171729167668 -2.008126855338242, 1.6069690242163412 -1.915111107797451 C1.7178208755159157 -1.82209536025666, 1.8220953602566472 -1.7178208755159294, 1.915111107797439 -1.6069690242163557 C2.0081268553382308 -1.496117172916782, 2.09271010209987 -1.3753197776503712, 2.1650635094610915 -1.2500000000000089 C2.237416916822313 -1.1246802223496466, 2.299738906453196 -0.9910302842862939, 2.3492315519647673 -0.855050358314182 C2.3987241974763385 -0.71907043234207, 2.4368913078579792 -0.5766288372196986, 2.462019382530518 -0.4341204441673369 C2.487147457203057 -0.29161205111497523, 2.4936698970884197 -0.07235340736123454, 2.5 -1.1714553645825241e-14 C2.5063301029115803 0.07235340736121111, 2.50633010291158 -0.07235340736122292, 2.5 0" stroke="none" stroke-width="0" fill="#ccc" style=""/><path d="M2.5 0 C2.5 0.14470681472244193, 2.487147457203058 0.29161205111496386, 2.46201938253052 0.4341204441673258 C2.436891307857982 0.5766288372196877, 2.3987241974763416 0.7190704323420595, 2.3492315519647713 0.8550503583141718 C2.299738906453201 0.991030284286284, 2.2374169168223177 1.124680222349637, 2.165063509461097 1.2499999999999998 C2.092710102099876 1.3753197776503625, 2.0081268553382365 1.496117172916774, 1.915111107797445 1.6069690242163481 C1.8220953602566536 1.7178208755159223, 1.7178208755159226 1.8220953602566536, 1.6069690242163484 1.915111107797445 C1.4961171729167742 2.0081268553382365, 1.375319777650363 2.0927101020998755, 1.2500000000000002 2.1650635094610964 C1.1246802223496375 2.2374169168223172, 0.9910302842862845 2.2997389064532, 0.8550503583141721 2.349231551964771 C0.7190704323420597 2.3987241974763416, 0.576628837219688 2.436891307857982, 0.43412044416732604 2.46201938253052 C0.291612051114964 2.487147457203058, 0.14470681472244212 2.5, 1.5308084989341916e-16 2.5 C-0.1447068147224418 2.5, -0.2916120511149638 2.487147457203058, -0.43412044416732576 2.46201938253052 C-0.5766288372196877 2.436891307857982, -0.7190704323420595 2.3987241974763416, -0.8550503583141718 2.3492315519647713 C-0.991030284286284 2.299738906453201, -1.124680222349637 2.2374169168223177, -1.2499999999999996 2.165063509461097 C-1.375319777650362 2.092710102099876, -1.4961171729167733 2.008126855338237, -1.6069690242163475 1.9151111077974459 C-1.7178208755159217 1.8220953602566548, -1.822095360256653 1.7178208755159234, -1.9151111077974443 1.6069690242163495 C-2.0081268553382357 1.4961171729167755, -2.0927101020998746 1.3753197776503645, -2.1650635094610955 1.250000000000002 C-2.2374169168223164 1.1246802223496395, -2.2997389064531992 0.9910302842862865, -2.34923155196477 0.8550503583141743 C-2.3987241974763407 0.7190704323420621, -2.436891307857981 0.5766288372196907, -2.4620193825305194 0.434120444167329 C-2.487147457203058 0.29161205111496724, -2.5 0.14470681472244545, -2.5 3.636830773662308e-15 C-2.5 -0.14470681472243818, -2.4871474572030587 -0.2916120511149599, -2.4620193825305208 -0.4341204441673218 C-2.436891307857983 -0.5766288372196837, -2.398724197476343 -0.7190704323420553, -2.3492315519647726 -0.8550503583141675 C-2.2997389064532023 -0.9910302842862798, -2.23741691682232 -1.1246802223496328, -2.165063509461099 -1.2499999999999956 C-2.092710102099878 -1.3753197776503583, -2.00812685533824 -1.4961171729167695, -1.9151111077974488 -1.606969024216344 C-1.8220953602566576 -1.7178208755159183, -1.7178208755159263 -1.82209536025665, -1.6069690242163523 -1.9151111077974416 C-1.4961171729167784 -2.0081268553382334, -1.3753197776503672 -2.0927101020998724, -1.2500000000000047 -2.1650635094610937 C-1.1246802223496422 -2.237416916822315, -0.9910302842862897 -2.299738906453198, -0.8550503583141776 -2.3492315519647686 C-0.7190704323420656 -2.3987241974763394, -0.5766288372196942 -2.4368913078579806, -0.43412044416733236 -2.462019382530519 C-0.29161205111497057 -2.4871474572030574, -0.1447068147224489 -2.4999999999999996, -7.120580697431198e-15 -2.5 C0.14470681472243463 -2.5000000000000004, 0.29161205111495647 -2.487147457203059, 0.4341204441673183 -2.4620193825305217 C0.5766288372196802 -2.436891307857984, 0.7190704323420518 -2.3987241974763442, 0.8550503583141642 -2.349231551964774 C0.9910302842862766 -2.2997389064532037, 1.1246802223496295 -2.2374169168223212, 1.2499999999999925 -2.165063509461101 C1.3753197776503554 -2.0927101020998804, 1.4961171729167668 -2.008126855338242, 1.6069690242163412 -1.915111107797451 C1.7178208755159157 -1.82209536025666, 1.8220953602566472 -1.7178208755159294, 1.915111107797439 -1.6069690242163557 C2.0081268553382308 -1.496117172916782, 2.09271010209987 -1.3753197776503712, 2.1650635094610915 -1.2500000000000089 C2.237416916822313 -1.1246802223496466, 2.299738906453196 -0.9910302842862939, 2.3492315519647673 -0.855050358314182 C2.3987241974763385 -0.71907043234207, 2.4368913078579792 -0.5766288372196986, 2.462019382530518 -0.4341204441673369 C2.487147457203057 -0.29161205111497523, 2.4936698970884197 -0.07235340736123454, 2.5 -1.1714553645825241e-14 C2.5063301029115803 0.07235340736121111, 2.50633010291158 -0.07235340736122292, 2.5 0" stroke="#ccc" stroke-width="2" fill="none" stroke-dasharray="0 0" style=""/></g></g></g><g class="label edgeLabel" id="ACTIVE---ACTIVE---1" data-id="ACTIVE---ACTIVE---1" data-node="true" data-et="node" transform="translate(827.3489570617676, 131.30000000074506)"><rect width="0.1" height="0.1"/><g class="label" style="" transform="translate(0, 0)"><rect/><foreignObject width="0" height="0"><div xmlns="http://www.w3.org/1999/xhtml" style="display: table-cell; white-space: normal; overflow-wrap: break-word; line-height: 1.5; max-width: 10px; text-align: center;"><span class="nodeLabel"></span></div></foreignObject></g></g><g class="label edgeLabel" id="ACTIVE---ACTIVE---2" data-id="ACTIVE---ACTIVE---2" data-node="true" data-et="node" transform="translate(1121.5416641235352, 131.30000000074506)"><rect width="0.1" height="0.1"/><g class="label" style="" transform="translate(0, 0)"><rect/><foreignObject width="0" height="0"><div xmlns="http://www.w3.org/1999/xhtml" style="display: table-cell; white-space: normal; overflow-wrap: break-word; line-height: 1.5; max-width: 10px; text-align: center;"><span class="nodeLabel"></span></div></foreignObject></g></g></g></g></g><defs><filter id="export-svg-drop-shadow" height="130%" width="130%"><feDropShadow dx="4" dy="4" stdDeviation="0" flood-opacity="0.06" flood-color="#FFFFFF"/></filter></defs><defs><filter id="export-svg-drop-shadow-small" height="150%" width="150%"><feDropShadow dx="2" dy="2" stdDeviation="0" flood-opacity="0.06" flood-color="#FFFFFF"/></filter></defs><linearGradient id="export-svg-gradient" gradientUnits="objectBoundingBox" x1="0%" y1="0%" x2="100%" y2="0%"><stop offset="0%" stop-color="#cccccc" stop-opacity="1"/><stop offset="100%" stop-color="hsl(180, 0%, 18.3529411765%)" stop-opacity="1"/></linearGradient></svg>